<svg xmlns="http://www.w3.org/2000/svg" version="1.2" overflow="visible" preserveAspectRatio="none" viewBox="0 0 24 24" width="32" height="32"><g><path xmlns:default="http://www.w3.org/2000/svg" id="address-card" d="M12,14.45c0.01,0.41-0.13,0.8-0.39,1.11c-0.23,0.28-0.58,0.45-0.95,0.44H5.34  c-0.37,0.01-0.72-0.16-0.95-0.44c-0.26-0.31-0.4-0.7-0.39-1.11c0-0.41,0.03-0.82,0.09-1.22c0.06-0.37,0.17-0.73,0.31-1.07  c0.12-0.32,0.33-0.61,0.6-0.82C5.29,11.12,5.64,11,6,11l0.31,0.19l0.39,0.22l0.37,0.18c0.14,0.07,0.3,0.12,0.45,0.15  c0.29,0.06,0.58,0.06,0.87,0c0.15-0.03,0.31-0.08,0.45-0.15l0.37-0.18l0.39-0.22L10,11c0.36-0.01,0.71,0.1,1,0.3  c0.28,0.2,0.5,0.49,0.63,0.81c0.14,0.34,0.25,0.7,0.31,1.07C12,13.6,12.02,14.03,12,14.45L12,14.45z M9.67,10.7  c-0.92,0.92-2.42,0.92-3.34,0c0,0,0,0,0,0c-0.92-0.92-0.92-2.42,0-3.34c0,0,0,0,0,0c0.92-0.92,2.42-0.92,3.34,0c0,0,0,0,0,0  C10.59,8.28,10.59,9.78,9.67,10.7C9.67,10.7,9.67,10.7,9.67,10.7z M20,14.33c0.01,0.18-0.13,0.32-0.31,0.33c-0.01,0-0.01,0-0.02,0  h-6c-0.18,0.01-0.32-0.13-0.33-0.31c0-0.01,0-0.01,0-0.02v-0.66c-0.01-0.18,0.13-0.32,0.31-0.33c0.01,0,0.01,0,0.02,0h6  c0.18-0.01,0.32,0.13,0.33,0.31c0,0.01,0,0.01,0,0.02v0.67l0,0V14.33z M19.89,11.89C19.82,11.96,19.72,12,19.62,12h-5.91  c-0.2,0-0.37-0.17-0.37-0.37V11c0-0.2,0.17-0.37,0.37-0.37h5.91c0.2-0.01,0.37,0.16,0.38,0.36c0,0,0,0.01,0,0.01v0.58  C20.02,11.7,19.97,11.81,19.89,11.89z M19.89,9.24c-0.06,0.06-0.15,0.09-0.24,0.09h-6c-0.18,0-0.32-0.14-0.32-0.32  c0,0,0-0.01,0-0.01V8.34c-0.01-0.18,0.12-0.33,0.3-0.34c0.01,0,0.03,0,0.04,0h6c0.18-0.01,0.32,0.13,0.33,0.31c0,0.01,0,0.01,0,0.02  V9c0,0.09-0.03,0.18-0.1,0.24H19.89z M22.16,4.49C21.86,4.17,21.44,4,21,4H3C2.56,3.99,2.13,4.17,1.82,4.49  C1.5,4.8,1.32,5.23,1.33,5.67v12.66c-0.01,0.44,0.17,0.87,0.49,1.18C2.13,19.83,2.56,20.01,3,20h3.67v-1  c-0.01-0.18,0.12-0.33,0.3-0.34c0.01,0,0.02,0,0.03,0h0.67c0.18-0.01,0.32,0.13,0.33,0.31c0,0.01,0,0.02,0,0.03v1h8v-1  c-0.01-0.18,0.13-0.32,0.31-0.33c0.01,0,0.01,0,0.02,0H17c0.18-0.01,0.32,0.13,0.33,0.31c0,0.01,0,0.01,0,0.02v1H21  c0.92,0,1.67-0.75,1.67-1.67l0,0V5.67c0.01-0.45-0.18-0.87-0.5-1.18H22.16z" style="fill: rgb(175, 39, 47);" vector-effect="non-scaling-stroke"/></g></svg>