<svg xmlns="http://www.w3.org/2000/svg" viewBox="0 0 242.5 88"><path fill="#b2282d" d="M219 0h23.4v45H219z"/><path d="M207.7 88c-18.6 0-33.5-13.5-34.7-31.4l-.1-2.2h23.3l.3 1.7c.9 5 5.5 8.5 11.2 8.5 5.7 0 10.3-3.5 11.2-8.5l.3-1.7h23.3l-.1 2.2C241.2 74.5 226.3 88 207.7 88M99 86.5V54.4h23.3v8.7h42.9v23.4z" fill="#d2d0cd"/><path fill="#b2282d" d="M99 0h23.4v45H99zm74.1 0h23.4v45h-23.4z"/><path fill="#d2d0cd" d="M13.4 54.4L0 86.5h25.5l4.7-11.8h29.7l4.8 11.8h25.2L76.8 54.4z"/><path fill="#b2282d" d="M29.5 0l18.3 45h25.6L55.1 0z"/></svg>