<?xml version="1.0" encoding="UTF-8"?>
<svg width="208px" height="256px" viewBox="0 0 208 256" version="1.1" xmlns="http://www.w3.org/2000/svg" xmlns:xlink="http://www.w3.org/1999/xlink">
    <!-- Generator: Sketch 52.6 (67491) - http://www.bohemiancoding.com/sketch -->
    <title>forms</title>
    <desc>Created with Sketch.</desc>
    <g id="Page-2" stroke="none" stroke-width="1" fill="none" fill-rule="evenodd">
        <g id="forms" fill="#EC6607">
            <path d="M206.491665,63.4318761 L145.486123,1.53049701 C144.519823,0.550498925 143.210562,0 141.845127,0 L25.02329,0 C11.2250511,0 0,11.3909778 0,25.3919504 L0,230.60855 C0,244.609022 11.2255439,256 25.0237827,256 L182.976217,256 C196.774456,256 208,244.609522 208,230.60855 L208,67.1263689 C207.999507,65.7408716 207.45698,64.4118742 206.491665,63.4318761 Z M146.995444,17.8394652 L190.420821,61.9023791 L161.721548,61.9023791 C157.78736,61.9023791 154.088711,60.3478821 151.307579,57.5258876 C148.525954,54.7043932 146.994952,50.9519005 146.995444,46.9604083 L146.995444,17.8394652 Z M197.701829,230.60805 C197.701829,238.847534 191.095901,245.55052 182.976217,245.55052 L25.02329,245.55052 C16.9031136,245.55052 10.2971858,238.847534 10.2971858,230.60805 L10.2971858,25.3919504 C10.2976786,17.1524665 16.9036064,10.4489796 25.02329,10.4489796 L136.697766,10.4489796 L136.697766,46.9594083 C136.69678,53.741895 139.299534,60.1183826 144.025586,64.9138732 C148.75213,69.7098638 155.036286,72.3508587 161.721056,72.3508587 L197.701336,72.3508587 L197.701336,230.60805 L197.701829,230.60805 Z" id="Shape" fill-rule="nonzero"></path>
            <path d="M154.780368,168 L61.2196317,168 C58.33732,168 56,170.238492 56,173 C56,175.761508 58.33732,178 61.2196317,178 L154.780368,178 C157.66268,178 160,175.761508 160,173 C160,170.238492 157.66268,168 154.780368,168 Z" id="Path"></path>
            <path d="M154.780368,132 L61.2196317,132 C58.33732,132 56,134.238492 56,137 C56,139.761508 58.33732,142 61.2196317,142 L154.780368,142 C157.66268,142 160,139.761508 160,137 C160,134.238492 157.66268,132 154.780368,132 Z" id="Path"></path>
            <path d="M154.780368,96 L61.2196317,96 C58.33732,96 56,98.2384917 56,101 C56,103.761508 58.33732,106 61.2196317,106 L154.780368,106 C157.66268,106 160,103.761508 160,101 C160,98.2384917 157.66268,96 154.780368,96 Z" id="Path"></path>
        </g>
    </g>
</svg>