<?xml version="1.0" encoding="UTF-8"?>
<svg width="216px" height="216px" viewBox="0 0 216 216" version="1.1" xmlns="http://www.w3.org/2000/svg" xmlns:xlink="http://www.w3.org/1999/xlink">
    <!-- Generator: Sketch 52.6 (67491) - http://www.bohemiancoding.com/sketch -->
    <title>clock</title>
    <desc>Created with Sketch.</desc>
    <g id="Page-2" stroke="none" stroke-width="1" fill="none" fill-rule="evenodd">
        <g id="clock" transform="translate(-24.000000, -24.000000)">
            <path d="M131.892,24 C72.276,24 24,72.384 24,132 C24,191.616 72.276,240 131.892,240 C191.616,240 240,191.616 240,132 C240,72.384 191.616,24 131.892,24 Z M132,224 C81.17,224 40,182.83 40,132 C40,81.17 81.17,40 132,40 C182.83,40 224,81.17 224,132 C224,182.83 182.83,224 132,224 Z" id="Shape" fill="#EC6607" fill-rule="nonzero"></path>
            <polygon id="Path" points="0 0 256 0 256 256 0 256"></polygon>
            <polygon id="Path" fill="#EC6607" points="136 72 120 72 120 134.95082 176 168 184 155.095082 136 127.081967"></polygon>
        </g>
    </g>
</svg>