<?xml version="1.0" encoding="UTF-8"?>
<svg width="224px" height="224px" viewBox="0 0 224 224" version="1.1" xmlns="http://www.w3.org/2000/svg" xmlns:xlink="http://www.w3.org/1999/xlink">
    <!-- Generator: Sketch 52.6 (67491) - http://www.bohemiancoding.com/sketch -->
    <title>check</title>
    <desc>Created with Sketch.</desc>
    <g id="Page-2" stroke="none" stroke-width="1" fill="none" fill-rule="evenodd">
        <g id="check" transform="translate(-23.000000, -23.000000)">
            <polygon id="Path" points="0 0 256 0 256 256 0 256"></polygon>
            <path d="M135,23 C73.176,23 23,73.176 23,135 C23,196.824 73.176,247 135,247 C196.824,247 247,196.824 247,135 C247,73.176 196.824,23 135,23 Z M135,231 C82.08,231 39,187.92 39,135 C39,82.08 82.08,39 135,39 C187.92,39 231,82.08 231,135 C231,187.92 187.92,231 135,231 Z M173.745212,91.3132121 L109.884848,155.173576 L89.4669091,134.755636 C85.2312727,130.52 78.3890909,130.52 74.1534545,134.755636 C69.9178182,138.991273 69.9178182,145.833455 74.1534545,150.069091 L102.282424,178.198061 C106.518061,182.433697 113.360242,182.433697 117.595879,178.198061 L189.167273,106.626667 C193.402909,102.39103 193.402909,95.5488485 189.167273,91.3132121 C184.931636,87.0775758 177.980848,87.0775758 173.745212,91.3132121 Z" id="Shape" fill="#EC6607" fill-rule="nonzero"></path>
        </g>
    </g>
</svg>