<?xml version="1.0" encoding="UTF-8"?>
<svg width="202px" height="264px" viewBox="0 0 202 264" version="1.1" xmlns="http://www.w3.org/2000/svg" xmlns:xlink="http://www.w3.org/1999/xlink">
    <!-- Generator: Sketch 52.6 (67491) - http://www.bohemiancoding.com/sketch -->
    <title>wave-hand</title>
    <desc>Created with Sketch.</desc>
    <g id="Page-2" stroke="none" stroke-width="1" fill="none" fill-rule="evenodd">
        <g id="wave-hand" transform="translate(-16.000000, 0.000000)" fill="#EC6607">
            <path d="M49.4924149,235.753793 C49.4924149,221.27281 61.2728098,209.492415 75.7537926,209.492415 C78.0984068,209.492415 80,207.590822 80,205.246207 C80,202.901593 78.0984068,201 75.7537926,201 C56.5906583,201 41,216.590658 41,235.753793 C41,238.098407 42.9015932,240 45.2462074,240 C47.5908217,240 49.4924149,238.098407 49.4924149,235.753793 Z" id="Path" transform="translate(60.500000, 220.500000) scale(1, -1) translate(-60.500000, -220.500000) "></path>
            <path d="M75.3781715,209.243657 C77.9301911,209.243657 80,207.174618 80,204.621829 C80,202.069809 77.9301911,200 75.3781715,200 C42.6371383,200 16,226.637138 16,259.378171 C16,261.930191 18.0698089,264 20.6218285,264 C23.1738482,264 25.243657,261.930191 25.243657,259.378171 C25.243657,231.733475 47.7334746,209.243657 75.3781715,209.243657 Z" id="Path" transform="translate(48.000000, 232.000000) scale(1, -1) translate(-48.000000, -232.000000) "></path>
            <path d="M133.246207,25 C130.900886,25 129,26.9015932 129,29.2462074 C129,31.5908217 130.900886,33.4924149 133.246207,33.4924149 C147.72719,33.4924149 159.507585,45.2728098 159.507585,59.7537926 C159.507585,62.0984068 161.408471,64 163.753793,64 C166.099114,64 168,62.0984068 168,59.7537926 C168,40.5906583 152.409342,25 133.246207,25 Z" id="Path"></path>
            <path d="M132.621829,0 C130.069039,0 128,2.06980887 128,4.62182851 C128,7.17461846 130.069039,9.24365702 132.621829,9.24365702 C160.266525,9.24365702 182.756343,31.7334746 182.756343,59.3781715 C182.756343,61.9301911 184.825382,64 187.378171,64 C189.930191,64 192,61.9301911 192,59.3781715 C192,26.6371383 165.362862,0 132.621829,0 Z" id="Path"></path>
            <path d="M191.071343,71.5142757 C190.331871,71.5142757 189.719273,71.5578182 188.981302,71.6434018 C185.81471,72.0120117 182.817783,73.1606334 180.565584,74.8858182 L180.565584,70.9827566 C180.565584,61.1361408 173.336023,52.8690674 163.742405,51.753478 C163.004434,51.6671437 162.256704,51.6236012 161.51573,51.6236012 C157.590147,51.6228504 153.843988,52.8090088 150.678897,55.0124106 C149.985971,45.8399531 143.010158,38.3731613 133.909771,37.3146276 C133.171801,37.229044 132.430076,37.2117771 131.689853,37.2117771 L131.6861,37.2117771 L131.683097,37.2117771 C126.604387,37.2117771 121.821466,39.1689384 118.216446,42.7739589 C114.895202,46.0952023 112.948551,50.4029091 112.664023,55.0349326 C110.178346,53.2939824 107.256493,52.130346 104.074135,51.7602346 C103.336164,51.6739003 102.586182,51.6273548 101.845959,51.6273548 C96.7672493,51.6266041 91.6990499,53.6100411 88.0940293,57.2143109 C84.4897595,60.8193314 82.2180411,65.5992493 82.2180411,70.6779589 L82.2180411,135.271038 L78.0709912,131.084199 C74.5110147,127.578276 69.9375484,125.649642 64.9166452,125.649642 C59.8461935,125.649642 55.1586158,127.617314 51.5858768,131.189302 C44.3645748,138.410604 44.2354487,150.057478 51.1271789,157.480727 L91.5751789,210.804551 L92.4460293,222.264493 C92.961783,229.125443 98.7589443,234.499191 105.638663,234.499191 L179.564106,234.440633 C186.174311,234.432375 191.80556,229.487296 192.6659,222.93715 L194.458651,209.28732 C200.131941,200.105103 204.05227,187.931965 206.674581,173.080962 C208.965067,160.113548 209.843425,144.722018 209.843425,127.335789 L209.843425,90.5678827 C209.843425,80.0613724 201.578604,71.5142757 191.071343,71.5142757 Z M183.734428,221.763003 C183.45966,223.859801 181.673666,225.506158 179.55885,225.508411 L105.648422,225.645044 C105.64617,225.645044 105.644669,225.645044 105.642416,225.645044 C103.436762,225.645044 101.603472,223.866557 101.43756,221.666158 L100.378276,207.529103 C100.377525,207.521595 100.375273,207.49532 100.370018,207.489314 L58.0279179,151.633267 C54.1601408,147.76549 54.1601408,141.430804 58.0279179,137.563777 C59.9618065,135.629889 62.5112962,134.659941 65.0600352,134.659941 C67.6095249,134.659941 70.1590147,135.626135 72.0929032,137.560023 L84.0100411,148.812012 C84.9386979,149.688868 85.7697595,150.081501 86.8643284,150.081501 C89.2419003,150.081501 91.2268387,148.227191 91.2268387,145.453232 L91.2268387,70.6772082 C91.2268387,65.152563 96.0330323,60.6308974 101.558428,60.6316481 C101.94956,60.6316481 102.291894,60.6541701 102.692035,60.7007155 C107.805279,61.2960469 111.496633,65.8342287 111.496633,70.9820059 L111.496633,122.49356 C111.496633,125.167672 113.671507,127.335038 116.34637,127.335038 C119.053513,127.335038 121.256164,125.139894 121.256164,122.432751 L121.256164,56.2120821 C121.256164,50.6866862 125.966264,46.1657713 131.490909,46.1657713 C131.88129,46.1657713 132.273173,46.1882933 132.672563,46.2355894 C137.785806,46.8301701 141.525959,51.3691026 141.525959,56.516129 L141.525959,122.427496 C141.525959,125.137642 143.731613,127.335789 146.44176,127.335789 C149.112868,127.335789 151.28549,125.169924 151.28549,122.499566 L151.28549,70.6772082 C151.28549,65.152563 155.898745,60.6308974 161.424141,60.6316481 C161.814522,60.6316481 162.253701,60.6541701 162.653091,60.7007155 C167.766334,61.2960469 171.554534,65.8342287 171.554534,70.9820059 L171.554534,122.314135 C171.554534,125.087343 173.810487,127.299003 176.582944,127.299003 L176.666276,127.299003 C179.228528,127.299003 181.313314,125.25776 181.313314,122.695507 L181.313314,90.8719296 C181.313314,85.7249032 185.055718,81.1867214 190.168211,80.59139 C190.567601,80.5448446 190.67946,80.5223226 191.070592,80.5223226 C196.595238,80.5223226 200.832375,85.0424868 200.832375,90.5678827 L200.832375,127.335789 C200.832375,158.737455 197.305431,187.75254 186.030921,205.312188 C185.688587,205.845959 185.603003,206.442792 185.520422,207.071906 L183.734428,221.763003 Z" id="Shape" stroke="#EC6607" fill-rule="nonzero" transform="translate(127.952635, 135.855484) scale(-1, 1) rotate(45.000000) translate(-127.952635, -135.855484) "></path>
        </g>
    </g>
</svg>